<mxfile host="app.diagrams.net" modified="2023-12-12T15:36:19.184Z" agent="Mozilla/5.0 (X11; Linux x86_64) AppleWebKit/537.36 (KHTML, like Gecko) Chrome/118.0.0.0 Safari/537.36" etag="uoQZ3vuEtPU0xf1HBMNa" version="22.1.7" type="device">
  <diagram name="Page-1" id="3PBY8ho_g8WC8aYEp2y1">
    <mxGraphModel dx="2261" dy="772" grid="1" gridSize="10" guides="1" tooltips="1" connect="1" arrows="1" fold="1" page="1" pageScale="1" pageWidth="827" pageHeight="1169" math="0" shadow="0">
      <root>
        <mxCell id="0" />
        <mxCell id="1" parent="0" />
        <mxCell id="1JwQJW0HTk08iTyS6v2Q-1" value="q0" style="ellipse;whiteSpace=wrap;html=1;fillColor=none;fontSize=16;" vertex="1" parent="1">
          <mxGeometry x="80" y="360" width="80" height="80" as="geometry" />
        </mxCell>
        <mxCell id="1JwQJW0HTk08iTyS6v2Q-2" value="q1" style="ellipse;whiteSpace=wrap;html=1;fillColor=none;fontSize=16;" vertex="1" parent="1">
          <mxGeometry x="240" y="360" width="80" height="80" as="geometry" />
        </mxCell>
        <mxCell id="1JwQJW0HTk08iTyS6v2Q-3" value="q2" style="ellipse;whiteSpace=wrap;html=1;fillColor=none;fontSize=16;" vertex="1" parent="1">
          <mxGeometry x="400" y="360" width="80" height="80" as="geometry" />
        </mxCell>
        <mxCell id="1JwQJW0HTk08iTyS6v2Q-4" value="q3" style="ellipse;whiteSpace=wrap;html=1;fillColor=none;fontSize=16;" vertex="1" parent="1">
          <mxGeometry x="560" y="360" width="80" height="80" as="geometry" />
        </mxCell>
        <mxCell id="1JwQJW0HTk08iTyS6v2Q-5" value="" style="endArrow=classic;html=1;rounded=0;entryX=0;entryY=0.5;entryDx=0;entryDy=0;" edge="1" parent="1" target="1JwQJW0HTk08iTyS6v2Q-1">
          <mxGeometry width="50" height="50" relative="1" as="geometry">
            <mxPoint y="400" as="sourcePoint" />
            <mxPoint x="440" y="370" as="targetPoint" />
          </mxGeometry>
        </mxCell>
        <mxCell id="1JwQJW0HTk08iTyS6v2Q-6" value="0" style="endArrow=classic;html=1;rounded=0;entryX=0;entryY=0.5;entryDx=0;entryDy=0;exitX=1;exitY=0.5;exitDx=0;exitDy=0;fontSize=16;labelPosition=center;verticalLabelPosition=top;align=center;verticalAlign=bottom;" edge="1" parent="1" source="1JwQJW0HTk08iTyS6v2Q-1" target="1JwQJW0HTk08iTyS6v2Q-2">
          <mxGeometry width="50" height="50" relative="1" as="geometry">
            <mxPoint x="390" y="420" as="sourcePoint" />
            <mxPoint x="440" y="370" as="targetPoint" />
          </mxGeometry>
        </mxCell>
        <mxCell id="1JwQJW0HTk08iTyS6v2Q-7" value="0" style="endArrow=classic;html=1;rounded=0;entryX=0;entryY=0.5;entryDx=0;entryDy=0;exitX=1;exitY=0.5;exitDx=0;exitDy=0;fontSize=16;labelPosition=center;verticalLabelPosition=top;align=center;verticalAlign=bottom;" edge="1" parent="1" source="1JwQJW0HTk08iTyS6v2Q-3" target="1JwQJW0HTk08iTyS6v2Q-4">
          <mxGeometry width="50" height="50" relative="1" as="geometry">
            <mxPoint x="390" y="420" as="sourcePoint" />
            <mxPoint x="440" y="370" as="targetPoint" />
          </mxGeometry>
        </mxCell>
        <mxCell id="1JwQJW0HTk08iTyS6v2Q-8" value="0" style="endArrow=classic;html=1;rounded=0;exitX=1;exitY=0.5;exitDx=0;exitDy=0;entryX=0;entryY=0.5;entryDx=0;entryDy=0;fontSize=16;labelPosition=center;verticalLabelPosition=top;align=center;verticalAlign=bottom;" edge="1" parent="1" source="1JwQJW0HTk08iTyS6v2Q-2" target="1JwQJW0HTk08iTyS6v2Q-3">
          <mxGeometry width="50" height="50" relative="1" as="geometry">
            <mxPoint x="390" y="420" as="sourcePoint" />
            <mxPoint x="440" y="370" as="targetPoint" />
          </mxGeometry>
        </mxCell>
        <mxCell id="1JwQJW0HTk08iTyS6v2Q-9" value="" style="ellipse;whiteSpace=wrap;html=1;fillColor=none;" vertex="1" parent="1">
          <mxGeometry x="90" y="370" width="60" height="60" as="geometry" />
        </mxCell>
        <mxCell id="1JwQJW0HTk08iTyS6v2Q-10" value="" style="ellipse;whiteSpace=wrap;html=1;fillColor=none;" vertex="1" parent="1">
          <mxGeometry x="410" y="370" width="60" height="60" as="geometry" />
        </mxCell>
        <mxCell id="1JwQJW0HTk08iTyS6v2Q-11" value="" style="ellipse;whiteSpace=wrap;html=1;fillColor=none;" vertex="1" parent="1">
          <mxGeometry x="250" y="370" width="60" height="60" as="geometry" />
        </mxCell>
        <mxCell id="1JwQJW0HTk08iTyS6v2Q-14" value="1" style="endArrow=classic;html=1;exitX=0.5;exitY=0;exitDx=0;exitDy=0;entryX=0.5;entryY=0;entryDx=0;entryDy=0;curved=1;fontSize=16;labelPosition=center;verticalLabelPosition=top;align=center;verticalAlign=bottom;" edge="1" parent="1" source="1JwQJW0HTk08iTyS6v2Q-2" target="1JwQJW0HTk08iTyS6v2Q-1">
          <mxGeometry width="50" height="50" relative="1" as="geometry">
            <mxPoint x="420" y="410" as="sourcePoint" />
            <mxPoint x="470" y="360" as="targetPoint" />
            <Array as="points">
              <mxPoint x="280" y="320" />
              <mxPoint x="120" y="320" />
            </Array>
          </mxGeometry>
        </mxCell>
        <mxCell id="1JwQJW0HTk08iTyS6v2Q-15" value="" style="edgeStyle=orthogonalEdgeStyle;orthogonalLoop=1;jettySize=auto;html=1;exitX=1;exitY=1;exitDx=0;exitDy=0;curved=1;entryX=0.5;entryY=1;entryDx=0;entryDy=0;fontSize=16;labelPosition=left;verticalLabelPosition=middle;align=right;verticalAlign=middle;" edge="1" parent="1">
          <mxGeometry relative="1" as="geometry">
            <mxPoint x="600" y="442" as="targetPoint" />
            <Array as="points">
              <mxPoint x="660" y="430" />
              <mxPoint x="660" y="492" />
              <mxPoint x="600" y="492" />
            </Array>
            <mxPoint x="628" y="430" as="sourcePoint" />
          </mxGeometry>
        </mxCell>
        <mxCell id="1JwQJW0HTk08iTyS6v2Q-16" value="" style="edgeStyle=orthogonalEdgeStyle;orthogonalLoop=1;jettySize=auto;html=1;exitX=0;exitY=1;exitDx=0;exitDy=0;curved=1;entryX=0.5;entryY=1;entryDx=0;entryDy=0;fontSize=16;labelPosition=right;verticalLabelPosition=middle;align=left;verticalAlign=middle;" edge="1" parent="1">
          <mxGeometry relative="1" as="geometry">
            <mxPoint x="120" y="442" as="targetPoint" />
            <mxPoint x="92" y="430" as="sourcePoint" />
            <Array as="points">
              <mxPoint x="60" y="430" />
              <mxPoint x="60" y="492" />
              <mxPoint x="120" y="492" />
            </Array>
          </mxGeometry>
        </mxCell>
        <mxCell id="1JwQJW0HTk08iTyS6v2Q-17" value="1" style="endArrow=classic;html=1;exitX=0.5;exitY=1;exitDx=0;exitDy=0;entryX=1;entryY=1;entryDx=0;entryDy=0;curved=1;fontSize=16;labelPosition=center;verticalLabelPosition=bottom;align=center;verticalAlign=top;" edge="1" parent="1" source="1JwQJW0HTk08iTyS6v2Q-3" target="1JwQJW0HTk08iTyS6v2Q-1">
          <mxGeometry width="50" height="50" relative="1" as="geometry">
            <mxPoint x="410" y="410" as="sourcePoint" />
            <mxPoint x="460" y="360" as="targetPoint" />
            <Array as="points">
              <mxPoint x="440" y="480" />
              <mxPoint x="148" y="480" />
            </Array>
          </mxGeometry>
        </mxCell>
        <mxCell id="1JwQJW0HTk08iTyS6v2Q-19" value="1" style="text;html=1;strokeColor=none;fillColor=none;align=center;verticalAlign=middle;whiteSpace=wrap;rounded=0;fontSize=16;" vertex="1" parent="1">
          <mxGeometry x="56" y="452" width="60" height="30" as="geometry" />
        </mxCell>
        <mxCell id="1JwQJW0HTk08iTyS6v2Q-20" value="0,1" style="text;html=1;strokeColor=none;fillColor=none;align=center;verticalAlign=middle;whiteSpace=wrap;rounded=0;fontSize=16;" vertex="1" parent="1">
          <mxGeometry x="602" y="451" width="60" height="30" as="geometry" />
        </mxCell>
        <mxCell id="1JwQJW0HTk08iTyS6v2Q-21" value="" style="rounded=0;whiteSpace=wrap;html=1;fillColor=none;strokeColor=#ffffff;" vertex="1" parent="1">
          <mxGeometry x="-30" y="260" width="730" height="280" as="geometry" />
        </mxCell>
      </root>
    </mxGraphModel>
  </diagram>
</mxfile>
